<svg xmlns="http://www.w3.org/2000/svg" width="32" height="32" viewBox="0 0 32 32" role="img" aria-label="Move cursor">
  <path d="M3 3.25v20.2l5.55-5.35 4.25 9.8 4.05-1.75-4.45-9.65h8.1Z" fill="#e5e8d7" stroke="#131b16" stroke-width="2.35" stroke-linejoin="round"/>
  <path d="M5.25 7.2v10.15l3.05-2.95 4.35 9.9 1.8-.78-4.4-9.82 5-.1Z" fill="#f7f2de"/>
  <circle cx="23" cy="22.5" r="7.1" fill="#131b16" stroke="#e5e8d7" stroke-width="1.1"/>
  <path d="M23 17.6v9.8M18.1 22.5h9.8M23 17.6l-1.6 1.8M23 17.6l1.6 1.8M27.9 22.5l-1.8-1.6M27.9 22.5l-1.8 1.6M23 27.4l-1.6-1.8M23 27.4l1.6-1.8M18.1 22.5l1.8-1.6M18.1 22.5l1.8 1.6" fill="none" stroke="#9bb877" stroke-width="1.25" stroke-linecap="round" stroke-linejoin="round"/>
</svg>
